Coordinates
version=1
nRows=19
nColumns=63
inDegrees=yes

Units are S.I. units (second, meters, Newtons, ...)
If the header above contains a line with 'inDegrees', this indicates whether rotational values are in degrees (yes) or radians (no).

endheader
time	pelvis_tilt	pelvis_list	pelvis_rotation	pelvis_tx	pelvis_ty	pelvis_tz	hip_flexion_r	hip_adduction_r	hip_rotation_r	knee_angle_r	knee_angle_r_beta	ankle_angle_r	subtalar_angle_r	mtp_angle_r	hip_flexion_l	hip_adduction_l	hip_rotation_l	knee_angle_l	knee_angle_l_beta	ankle_angle_l	subtalar_angle_l	mtp_angle_l	L5_S1_Flex_Ext	L5_S1_Lat_Bending	L5_S1_axial_rotation	L4_L5_Flex_Ext	L4_L5_Lat_Bending	L4_L5_axial_rotation	L3_L4_Flex_Ext	L3_L4_Lat_Bending	L3_L4_axial_rotation	L2_L3_Flex_Ext	L2_L3_Lat_Bending	L2_L3_axial_rotation	L1_L2_Flex_Ext	L1_L2_Lat_Bending	L1_L2_axial_rotation	L1_T12_Flex_Ext	L1_T12_Lat_Bending	L1_T12_axial_rotation	Abs_r3	Abs_r2	Abs_r1	Abs_t1	Abs_t2	neck_flexion	neck_bending	neck_rotation	arm_flex_r	arm_add_r	arm_rot_r	elbow_flex_r	pro_sup_r	wrist_flex_r	wrist_dev_r	arm_flex_l	arm_add_l	arm_rot_l	elbow_flex_l	pro_sup_l	wrist_flex_l	wrist_dev_l
3.916667	-3.522905	-6.674964	110.722163	0.042293	0.561362	0.793211	5.239121	-2.324338	-28.266220	12.118137	0.211501	28.533320	11.153219	0.000000	5.736482	2.633703	1.174340	9.291413	0.162166	25.037390	11.213938	0.000000	0.051381	1.447500	-1.135888	0.095419	1.925176	-1.206881	0.084413	3.519452	-1.206881	0.058723	3.519452	-0.993902	0.047712	2.951743	-0.922909	0.029359	2.242178	-0.851916	0.367007	16.374414	-6.317470	0.000000	0.000000	24.164982	1.365976	-2.035961	0.603085	-24.072960	41.769684	50.487063	89.630723	-13.387967	3.889564	13.019014	0.689308	146.103240	-4.553515	-6.136667	54.101594	-25.886607
3.937500	-4.001424	-6.541823	109.451128	0.044122	0.562038	0.793075	5.189452	-2.594921	-26.807959	12.280934	0.214343	28.480721	10.629416	0.000000	5.591344	2.923581	0.099609	9.596320	0.167487	25.025138	10.863149	0.000000	0.038308	1.458841	-1.112727	0.071142	1.940258	-1.182273	0.062937	3.547026	-1.182273	0.043782	3.547026	-0.973636	0.035573	2.974868	-0.904091	0.021889	2.259745	-0.834545	0.273632	16.502701	-6.188654	0.000000	0.000000	23.637605	1.394169	-2.681924	0.886820	-24.310463	42.428211	51.397976	89.730720	-13.927157	2.253274	13.785790	1.427032	146.664066	-4.552475	-5.936662	56.149498	-25.611677
3.958333	-4.510613	-6.426185	108.182806	0.046225	0.562396	0.792588	5.161792	-2.867539	-25.228552	12.446804	0.217238	28.514333	9.967000	0.000000	5.451632	3.226910	-0.988232	9.903820	0.172854	25.060835	10.502963	0.000000	0.026375	1.458130	-1.084467	0.048982	1.939313	-1.152246	0.043332	3.545297	-1.152246	0.030145	3.545297	-0.948908	0.024492	2.973419	-0.881129	0.015071	2.258643	-0.813350	0.188397	16.494658	-6.031478	0.000000	0.000000	23.301534	1.448544	-3.416066	0.895592	-24.364095	42.563179	52.615933	89.767544	-13.834688	0.927020	14.169120	1.600802	145.176226	-3.069810	-3.583459	56.873783	-25.129034
3.979167	-5.029645	-6.338482	106.942446	0.048573	0.562458	0.791683	5.155361	-3.130599	-23.534006	12.595812	0.219838	28.636547	9.159662	0.000000	5.315809	3.532711	-2.079388	10.189906	0.177847	25.131214	10.163519	0.000000	0.016232	1.446420	-1.060250	0.030145	1.923738	-1.126516	0.026668	3.516825	-1.126516	0.018552	3.516825	-0.927719	0.015073	2.949539	-0.861453	0.009275	2.240504	-0.795188	0.115944	16.362191	-5.896793	0.000000	0.000000	23.148409	1.589050	-4.130146	0.660340	-24.252920	42.260923	54.140238	89.672406	-13.136518	-0.137816	14.254777	1.223146	142.002109	-0.240437	0.683743	56.224405	-24.556079
4.000000	-5.535253	-6.274228	105.732597	0.051139	0.562277	0.790310	5.157940	-3.364323	-21.735653	12.710185	0.221835	28.835206	8.240465	0.000000	5.174451	3.823730	-3.170748	10.443548	0.182274	25.221307	9.846603	0.000000	0.008073	1.425362	-1.045504	0.014993	1.895731	-1.110848	0.013263	3.465625	-1.110848	0.009227	3.465625	-0.914816	0.007497	2.906598	-0.849472	0.004613	2.207885	-0.784128	0.057665	16.123977	-5.814779	0.000000	0.000000	23.147760	1.776947	-4.789389	0.252201	-24.019860	41.684478	55.948737	89.463210	-11.900061	-0.922835	14.111561	0.332380	137.400907	3.821058	6.585603	54.228037	-23.927126
4.020833	-6.015013	-6.225905	104.536189	0.053921	0.561906	0.788433	5.154990	-3.559696	-19.876192	12.780280	0.223058	29.102080	7.295600	0.000000	5.012162	4.090168	-4.260566	10.651832	0.185910	25.320555	9.532079	0.000000	0.002820	1.395313	-1.036768	0.005236	1.855766	-1.101566	0.004632	3.392564	-1.101566	0.003222	3.392564	-0.907172	0.002618	2.845322	-0.842374	0.001611	2.161340	-0.777576	0.020140	15.784059	-5.766195	0.000000	0.000000	23.283927	1.917366	-5.461382	-0.268300	-23.697458	40.971075	58.007999	89.203533	-10.212737	-1.388665	13.783597	-1.004574	131.515249	8.979916	13.877638	51.182173	-23.135532
4.041667	-6.440782	-6.170485	103.365052	0.056903	0.561396	0.786083	5.123602	-3.687696	-17.997748	12.797022	0.223350	29.402087	6.359944	0.000000	4.814474	4.301118	-5.341924	10.812072	0.188706	25.423621	9.238474	0.000000	0.001719	1.358939	-1.029732	0.003193	1.807389	-1.094090	0.002825	3.304125	-1.094090	0.001965	3.304125	-0.901015	0.001597	2.771149	-0.836657	0.000982	2.104997	-0.772299	0.012282	15.372592	-5.727060	0.000000	0.000000	23.536122	1.880175	-6.221836	-0.857095	-23.318351	40.209000	60.270101	88.941570	-8.150137	-1.518555	13.362076	-2.720059	124.664391	15.063034	21.907510	47.234575	-22.077574
4.062500	-6.815631	-6.106675	102.191203	0.060105	0.560761	0.783303	5.061830	-3.757837	-16.150014	12.767396	0.222833	29.725782	5.512371	0.000000	4.572178	4.462688	-6.436588	10.916603	0.190531	25.523240	8.961386	0.000000	0.006499	1.315279	-1.023796	0.012070	1.749321	-1.087783	0.010678	3.197970	-1.087783	0.007428	3.197970	-0.895821	0.006035	2.682117	-0.831834	0.003714	2.037367	-0.767847	0.046425	14.878700	-5.694044	0.000000	0.000000	23.871013	1.618412	-7.110536	-1.408875	-22.892382	39.572262	62.648655	88.700323	-5.836638	-1.263227	12.799243	-4.747278	116.787548	21.883408	30.300261	42.720019	-20.597678
4.083333	-7.147581	-6.013041	101.060300	0.063496	0.560045	0.780183	4.934927	-3.776777	-14.358576	12.691812	0.221514	30.044338	4.708870	0.000000	4.268070	4.579315	-7.521196	10.981041	0.191655	25.613047	8.735450	0.000000	0.016324	1.262944	-1.030285	0.030315	1.679715	-1.094677	0.026818	3.070722	-1.094677	0.018656	3.070722	-0.901499	0.015158	2.575395	-0.837106	0.009327	1.956300	-0.772713	0.116598	14.286673	-5.730134	0.000000	0.000000	24.235962	1.199555	-8.050043	-1.816387	-22.400073	39.205090	65.017681	88.491661	-3.427459	-0.679974	12.127315	-7.034933	108.042937	29.256199	38.570479	37.705986	-18.650730
4.104167	-7.424905	-5.885324	99.941362	0.067081	0.559273	0.776780	4.747314	-3.733671	-12.633617	12.585720	0.219662	30.331368	3.974032	0.000000	3.896664	4.642333	-8.601418	10.997049	0.191935	25.682866	8.520805	0.000000	0.032490	1.205198	-1.047275	0.060338	1.602913	-1.112730	0.053378	2.930318	-1.112730	0.037133	2.930318	-0.916366	0.030170	2.457640	-0.850911	0.018565	1.866852	-0.785456	0.232075	13.633440	-5.824629	0.000000	0.000000	24.563906	0.691125	-8.869090	-2.004721	-21.851379	39.180054	67.295628	88.322225	-0.941719	0.268566	11.345834	-9.488404	98.714095	36.940104	46.427383	32.285394	-16.264257
4.125000	-7.642360	-5.706349	98.844438	0.070814	0.558506	0.773233	4.476349	-3.634656	-11.089797	12.443972	0.217188	30.573321	3.441122	0.000000	3.455403	4.647734	-9.636304	10.984932	0.191723	25.724533	8.271578	0.000000	0.050787	1.143858	-1.069307	0.094317	1.521332	-1.136138	0.083438	2.781177	-1.136138	0.058045	2.781177	-0.935643	0.047161	2.332556	-0.868812	0.029020	1.771836	-0.801980	0.362767	12.939554	-5.947164	0.000000	0.000000	24.838026	0.173680	-9.514470	-1.929012	-21.293566	39.495633	69.447890	88.195751	1.542942	1.515580	10.612662	-12.036631	89.431848	44.700941	53.467858	26.478600	-13.512757
4.145833	-7.795571	-5.477262	97.782221	0.074666	0.557780	0.769589	4.132097	-3.462363	-9.623481	12.281895	0.214360	30.742900	2.930407	0.000000	2.949654	4.587600	-10.631905	10.946675	0.191056	25.744312	8.009011	0.000000	0.069963	1.082037	-1.098658	0.129928	1.439109	-1.167324	0.114942	2.630864	-1.167324	0.079960	2.630864	-0.961325	0.064967	2.206489	-0.892659	0.039977	1.676075	-0.823993	0.499736	12.240214	-6.110404	0.000000	0.000000	25.004446	-0.250759	-9.789731	-1.586527	-20.750131	40.219852	71.389235	88.113792	3.843868	2.851974	9.939339	-14.593168	80.673786	52.287036	59.660639	20.457748	-10.533430
4.166667	-7.888195	-5.200589	96.762226	0.078592	0.557102	0.765909	3.721096	-3.222007	-8.222595	12.112192	0.211398	30.843006	2.407365	0.000000	2.383979	4.469521	-11.576165	10.883711	0.189957	25.748609	7.718149	0.000000	0.087002	1.020598	-1.133273	0.161571	1.357395	-1.204103	0.142935	2.481482	-1.204103	0.099434	2.481482	-0.991614	0.080790	2.081203	-0.920784	0.049713	1.580906	-0.849955	0.621445	11.545207	-6.302925	0.000000	0.000000	25.081823	-0.504501	-9.606664	-1.010146	-20.238527	41.275839	73.069462	88.076560	5.944724	4.152714	9.347777	-17.070231	72.833306	59.448526	65.140115	14.605243	-7.496797
4.187500	-7.934076	-4.883714	95.793604	0.082544	0.556482	0.762284	3.250814	-2.937631	-6.924195	11.938053	0.208358	30.889011	1.924785	0.000000	1.778155	4.310233	-12.447891	10.815741	0.188770	25.745013	7.382531	0.000000	0.100507	0.958205	-1.167420	0.186652	1.274412	-1.240384	0.165123	2.329779	-1.240384	0.114870	2.329779	-1.021493	0.093331	1.953971	-0.948529	0.057430	1.484259	-0.875565	0.717914	10.839405	-6.492843	0.000000	0.000000	25.096787	-0.594631	-9.029480	-0.220490	-19.797722	42.632076	74.457891	88.084141	7.775424	5.311618	8.930645	-19.392256	66.298932	65.955517	69.713046	9.249041	-4.471343
4.208333	-7.930188	-4.538728	94.869753	0.086472	0.555961	0.758815	2.746558	-2.613289	-5.721004	11.768531	0.205400	30.874684	1.486441	0.000000	1.158254	4.113215	-13.249143	10.750569	0.187633	25.742327	6.995793	0.000000	0.110800	0.896388	-1.193628	0.205766	1.192196	-1.268230	0.182033	2.179478	-1.268230	0.126633	2.179478	-1.044425	0.102889	1.827914	-0.969823	0.063311	1.388505	-0.895221	0.791431	10.140119	-6.638602	0.000000	0.000000	25.063179	-0.570850	-8.128261	0.757922	-19.455158	44.261135	75.506488	88.135414	9.267815	6.229830	8.709747	-21.450744	61.288446	71.560800	73.229464	4.691924	-1.606429
4.229167	-7.873956	-4.181608	94.021050	0.090301	0.555574	0.755576	2.223795	-2.255578	-4.674169	11.598371	0.202430	30.805403	1.146709	0.000000	0.552594	3.879454	-13.946188	10.695696	0.186675	25.760149	6.572006	0.000000	0.119099	0.836391	-1.216999	0.221179	1.112400	-1.293061	0.195668	2.033601	-1.293061	0.136119	2.033601	-1.064874	0.110596	1.705568	-0.988812	0.068053	1.295569	-0.912749	0.850715	9.461420	-6.768582	0.000000	0.000000	25.016752	-0.461640	-6.983941	1.920828	-19.239442	46.179834	76.217443	88.230333	10.429044	6.892168	8.672082	-23.164436	57.966943	76.032920	75.391499	1.165218	0.873510
4.250000	-7.766815	-3.834648	93.180661	0.094064	0.555338	0.752625	1.732536	-1.861730	-3.619562	11.451192	0.199861	30.657626	0.752339	0.000000	-0.023254	3.605101	-14.692318	10.631667	0.185558	25.837945	6.278781	0.000000	0.127188	0.779508	-1.207508	0.236202	1.036745	-1.282977	0.208958	1.895295	-1.282977	0.145364	1.895295	-1.056569	0.118107	1.589572	-0.981100	0.072676	1.207457	-0.905631	0.908495	8.817945	-6.715796	0.000000	0.000000	24.997883	-0.294381	-5.753536	3.054026	-19.147634	47.988144	76.701538	88.372418	11.497554	7.485398	8.828906	-24.391686	56.394692	79.095567	76.444925	-0.725560	3.002775
4.270833	-7.595601	-3.503903	92.416342	0.097578	0.555311	0.750030	1.266551	-1.436455	-2.774013	11.299567	0.197215	30.442776	0.512920	0.000000	-0.535048	3.288477	-15.291916	10.588185	0.184799	25.951588	5.928921	0.000000	0.136132	0.729386	-1.175327	0.252811	0.970083	-1.248785	0.223652	1.773429	-1.248785	0.155586	1.773429	-1.028411	0.126413	1.487364	-0.954953	0.077786	1.129819	-0.881495	0.972380	8.250961	-6.536818	0.000000	0.000000	25.024300	-0.110293	-4.521595	4.111296	-19.176219	49.552052	77.045326	88.557184	12.678657	8.205088	9.253643	-25.062729	56.901848	80.554004	75.401062	-1.140799	4.480479
4.291667	-7.358045	-3.196645	91.731764	0.100719	0.555554	0.747847	0.835791	-0.987144	-2.174448	11.144108	0.194501	30.158220	0.477896	0.000000	-0.976092	2.932110	-15.741734	10.556697	0.184249	26.079770	5.525627	0.000000	0.147198	0.688920	-1.113380	0.273362	0.916263	-1.182966	0.241832	1.675039	-1.182966	0.168233	1.675039	-0.974208	0.136688	1.404845	-0.904621	0.084109	1.067137	-0.835035	1.051424	7.793197	-6.192287	0.000000	0.000000	25.102725	0.070431	-3.342755	4.994931	-19.283884	50.712941	77.268351	88.778359	13.914871	9.034335	9.985778	-25.030983	59.653936	80.141133	72.062474	0.238720	5.226313
